<svg width="2127" height="1985" xmlns="http://www.w3.org/2000/svg" xmlns:xlink="http://www.w3.org/1999/xlink" xml:space="preserve" overflow="hidden"><defs><clipPath id="clip0"><rect x="432" y="98" width="2127" height="1985"/></clipPath></defs><g clip-path="url(#clip0)" transform="translate(-432 -98)"><rect x="1649" y="774" width="815" height="264" fill="#F6C6AD"/><text font-family="Aptos,Aptos_MSFontService,sans-serif" font-weight="400" font-size="55" transform="matrix(1 0 0 1 1898.47 897)">Co</text><text font-family="Aptos,Aptos_MSFontService,sans-serif" font-weight="400" font-size="55" transform="matrix(1 0 0 1 1966.64 897)">-</text><text font-family="Aptos,Aptos_MSFontService,sans-serif" font-weight="400" font-size="55" transform="matrix(1 0 0 1 1985.55 897)">assembly</text><text font-family="Aptos,Aptos_MSFontService,sans-serif" font-weight="400" font-size="46" transform="matrix(1 0 0 1 1956.61 954)">(</text><text font-family="Aptos,Aptos_MSFontService,sans-serif" font-weight="400" font-size="46" transform="matrix(1 0 0 1 1969.78 954)">MegaHIT</text><text font-family="Aptos,Aptos_MSFontService,sans-serif" font-weight="400" font-size="46" transform="matrix(1 0 0 1 2143.38 954)">)</text><rect x="1649" y="98" width="815" height="263" fill="#F6C6AD"/><text font-family="Aptos,Aptos_MSFontService,sans-serif" font-weight="400" font-size="55" transform="matrix(1 0 0 1 1760.15 220)">Taxonomic Classification</text><text font-family="Aptos,Aptos_MSFontService,sans-serif" font-weight="400" font-size="46" transform="matrix(1 0 0 1 1964.94 277)">(MIDAS2)</text><rect x="1649" y="437" width="815" height="263" fill="#F6C6AD"/><text font-family="Aptos,Aptos_MSFontService,sans-serif" font-weight="400" font-size="55" transform="matrix(1 0 0 1 1763.05 526)">Read quality Control and </text><text font-family="Aptos,Aptos_MSFontService,sans-serif" font-weight="400" font-size="55" transform="matrix(1 0 0 1 1966.78 592)">filtering </text><text font-family="Aptos,Aptos_MSFontService,sans-serif" font-weight="400" font-size="46" transform="matrix(1 0 0 1 1732.89 649)">(</text><text font-family="Aptos,Aptos_MSFontService,sans-serif" font-weight="400" font-size="46" transform="matrix(1 0 0 1 1746.07 649)">FastQC</text><text font-family="Aptos,Aptos_MSFontService,sans-serif" font-weight="400" font-size="46" transform="matrix(1 0 0 1 1897.32 649)">, Bowtie2, </text><text font-family="Aptos,Aptos_MSFontService,sans-serif" font-weight="400" font-size="46" transform="matrix(1 0 0 1 2102.43 649)">Trimmomatic</text><text font-family="Aptos,Aptos_MSFontService,sans-serif" font-weight="400" font-size="46" transform="matrix(1 0 0 1 2367.11 649)">)</text><rect x="1649" y="1123" width="815" height="263" fill="#F6C6AD"/><text font-family="Aptos,Aptos_MSFontService,sans-serif" font-weight="400" font-size="55" transform="matrix(1 0 0 1 1967.8 1245)">Binning</text><text font-family="Aptos,Aptos_MSFontService,sans-serif" font-weight="400" font-size="46" transform="matrix(1 0 0 1 1760.11 1302)">(MaxBin2, MetaBat2, </text><text font-family="Aptos,Aptos_MSFontService,sans-serif" font-weight="400" font-size="46" transform="matrix(1 0 0 1 2178.34 1302)">DAStool</text><text font-family="Aptos,Aptos_MSFontService,sans-serif" font-weight="400" font-size="46" transform="matrix(1 0 0 1 2339.9 1302)">)</text><rect x="1649" y="1820" width="815" height="263" fill="#F6C6AD"/><text font-family="Aptos,Aptos_MSFontService,sans-serif" font-weight="400" font-size="55" transform="matrix(1 0 0 1 1763.64 1942)">Output and Visualization</text><text font-family="Aptos,Aptos_MSFontService,sans-serif" font-weight="400" font-size="46" transform="matrix(1 0 0 1 1960.93 1999)">(</text><text font-family="Aptos,Aptos_MSFontService,sans-serif" font-weight="400" font-size="46" transform="matrix(1 0 0 1 1974.1 1999)">MultiQC</text><text font-family="Aptos,Aptos_MSFontService,sans-serif" font-weight="400" font-size="46" transform="matrix(1 0 0 1 2139.1 1999)">)</text><rect x="1649" y="1471" width="815" height="264" fill="#F6C6AD"/><text font-family="Aptos,Aptos_MSFontService,sans-serif" font-weight="400" font-size="55" transform="matrix(1 0 0 1 1791.14 1593)">Binning quality control</text><text font-family="Aptos,Aptos_MSFontService,sans-serif" font-weight="400" font-size="46" transform="matrix(1 0 0 1 1961.77 1650)">(</text><text font-family="Aptos,Aptos_MSFontService,sans-serif" font-weight="400" font-size="46" transform="matrix(1 0 0 1 1974.95 1650)">CheckM</text><text font-family="Aptos,Aptos_MSFontService,sans-serif" font-weight="400" font-size="46" transform="matrix(1 0 0 1 2138.23 1650)">)</text><rect x="432" y="260" width="815" height="264" fill="#F6C6AD"/><text font-family="Aptos,Aptos_MSFontService,sans-serif" font-weight="400" font-size="55" transform="matrix(1 0 0 1 777.614 383)">Input</text><text font-family="Aptos,Aptos_MSFontService,sans-serif" font-weight="400" font-size="46" transform="matrix(1 0 0 1 786.506 440)">(.csv)</text><path d="M1274.48 389.205 1577.93 479.533 1575.97 486.122 1272.52 395.795ZM1576.48 468.342 1598.92 489.366 1568.64 494.699Z"/><path d="M2060.94 667.489 2061.32 785.604 2054.45 785.627 2054.06 667.511ZM2071.62 780.988 2057.96 808.532 2044.12 781.077Z"/><path d="M2058.94 1006.49 2059.32 1124.6 2052.45 1124.63 2052.06 1006.51ZM2069.62 1119.99 2055.96 1147.53 2042.12 1120.08Z"/><path d="M2058.94 1346.49 2059.32 1464.6 2052.45 1464.63 2052.06 1346.51ZM2069.62 1459.99 2055.96 1487.53 2042.12 1460.08Z"/><path d="M2058.94 1707.49 2059.32 1825.6 2052.45 1825.63 2052.06 1707.51ZM2069.62 1820.99 2055.96 1848.53 2042.12 1821.08Z"/><path d="M2558.15 173.5 2558.15 1955.81 2432.42 1955.81 2432.42 1948.93 2554.71 1948.93 2551.28 1952.37 2551.28 173.5ZM2437 1966.12 2409.5 1952.37 2437 1938.62Z"/><path d="M0 0 90.6338 0.000360892" stroke="#156082" stroke-width="6.875" stroke-miterlimit="8" fill="none" fill-rule="evenodd" transform="matrix(-1 0 0 1 2555.13 173.5)"/><path d="M0.980703-3.29464 304.433 87.033 302.472 93.6223-0.980703 3.29464ZM302.982 75.8415 325.417 96.8657 295.137 102.199Z" transform="matrix(1 0 0 -1 1273.5 361.366)"/></g></svg>